<?xml version="1.0" encoding="UTF-8"?>
<!-- Generated by Pixelmator Pro 3.6.18 -->
<svg width="533" height="122" viewBox="0 0 533 122" xmlns="http://www.w3.org/2000/svg">
    <g id="Group">
        <g id="g1">
            <path id="Path" fill="#272525" stroke="none" d="M 228.190735 91.04538 C 228.190735 93.177094 227.307358 94.99472 225.543564 96.493324 C 223.777771 97.991898 221.640076 98.743675 219.133484 98.743675 C 217.831329 98.743675 216.53215 98.506363 215.231979 98.034767 C 213.930832 97.563164 212.817108 96.811386 211.888855 95.784416 L 157.693741 35.627884 L 157.693741 91.046387 C 157.693741 93.178093 156.788406 94.995728 154.977768 96.494293 C 153.164108 97.992897 151.005478 98.744675 148.498871 98.744675 C 145.991272 98.744675 143.852585 97.992897 142.091782 96.494293 C 140.322998 94.995728 139.442581 93.178093 139.442581 91.046387 L 139.442581 12.893967 C 139.442581 11.153099 140.044815 9.631584 141.254242 8.333412 C 142.461685 7.030251 143.899445 6.123932 145.573502 5.609459 C 147.244583 5.093979 149.008377 5.036133 150.865891 5.430984 C 152.723404 5.827805 154.350616 6.773018 155.742508 8.273598 L 210.077194 68.427109 L 210.077194 6.140877 L 228.190735 6.140877 L 228.190735 91.04538 Z"/>
            <path id="path1" fill="#272525" stroke="none" d="M 260.510406 91.04538 C 260.510406 93.177094 259.604065 94.99472 257.792419 96.493324 C 255.984741 97.991898 253.822128 98.743675 251.315536 98.743675 C 248.808929 98.743675 246.671219 97.991898 244.90744 96.493324 C 243.141663 94.99472 242.262238 93.177094 242.262238 91.04538 L 242.262238 6.138885 L 260.511414 6.138885 L 260.511414 91.04538 Z"/>
            <path id="path2" fill="#272525" stroke="none" d="M 274.304688 98.743675 L 274.304688 13.837181 C 274.304688 11.705467 275.210052 9.887833 277.02066 8.389252 C 278.830353 6.888672 280.988983 6.138885 283.497559 6.138885 C 286.005188 6.138885 288.139862 6.888672 289.90567 8.389252 C 291.669464 9.887833 292.554871 11.705467 292.554871 13.837181 L 292.554871 83.350098 L 339.519287 83.350098 L 331.172913 98.742668 L 274.304688 98.742668 Z"/>
        </g>
        <g id="g2">
            <path id="path3" fill="#272525" stroke="none" d="M 438.421509 88.185837 C 439.535217 90.47805 439.535217 92.510048 438.421509 94.289803 C 437.30777 96.060577 435.72644 97.325859 433.684479 98.073654 C 431.64151 98.829422 429.478882 98.944069 427.207581 98.430603 C 424.928314 97.917099 423.236298 96.517242 422.121582 94.228004 L 412.786133 75.872162 L 367.506714 75.872162 L 358.171265 94.228004 C 357.05954 96.517242 355.361572 97.9161 353.08728 98.430603 C 350.809998 98.944069 336.398499 98.771576 336.398499 98.771576 C 336.398499 98.771576 340.75766 90.479057 341.871368 88.185837 L 381.856384 9.911751 C 382.598175 8.571709 383.643097 7.447021 384.990143 6.535728 C 386.338165 5.629387 388.032166 5.176727 390.076141 5.176727 C 392.213837 5.176727 393.953705 5.629387 395.301697 6.535728 C 396.647736 7.446037 397.692657 8.571709 398.435455 9.911751 L 438.421509 88.185837 Z M 390.214722 31.582817 L 375.448303 60.478565 L 404.844574 60.478565 L 390.214722 31.582817 Z"/>
        </g>
        <g id="g3">
            <path id="path4" fill="#272525" stroke="none" d="M 532.462036 91.04538 C 532.462036 93.177094 531.580688 94.99472 529.812866 96.493324 C 528.049072 97.991898 525.909363 98.743675 523.405762 98.743675 C 522.1026 98.743675 520.80249 98.506363 519.507263 98.034767 C 518.200073 97.563164 517.088379 96.811386 516.164124 95.784416 L 461.96701 35.627884 L 461.96701 91.046387 C 461.96701 93.178093 461.058716 94.995728 459.251038 96.494293 C 457.437378 97.992897 455.278778 98.744675 452.770142 98.744675 C 450.262573 98.744675 448.127838 97.992897 446.363068 96.494293 C 444.59729 94.995728 443.715881 93.178093 443.715881 91.046387 L 443.715881 12.893967 C 443.715881 11.153099 444.320068 9.631584 445.525543 8.333412 C 446.734985 7.030251 448.174744 6.123932 449.845795 5.609459 C 451.517853 5.093979 453.28064 5.036133 455.140167 5.430984 C 456.995697 5.827805 458.620911 6.773018 460.012787 8.273598 L 514.349487 68.427109 L 514.349487 6.140877 L 532.46106 6.140877 L 532.46106 91.04538 Z"/>
        </g>
        <g id="g4">
            <path id="path5" fill="#ba262c" stroke="none" d="M 0.565333 68.683365 C 3.36607 89.398224 16.640903 106.772995 34.892056 115.318764 L 34.892056 68.683365 L 0.565333 68.683365"/>
            <path id="path6" fill="#ba262c" stroke="none" d="M 34.892056 5.683228 C 16.811401 14.146263 3.609352 31.287697 0.638119 51.741341 L 34.892056 51.741341 L 34.892056 5.683228"/>
            <path id="path7" fill="#ba262c" stroke="none" d="M 120.365875 51.741341 C 116.1194 22.477692 90.944679 0 60.505489 0 C 57.561172 0 54.664722 0.22036 51.831078 0.628151 L 51.831078 51.741341 L 120.365875 51.741341"/>
            <path id="path8" fill="#ba262c" stroke="none" d="M 51.832073 120.374863 C 54.665718 120.781647 57.562172 121 60.506485 121 C 91.141106 121 116.44046 98.227188 120.43866 68.683365 L 51.832073 68.683365 L 51.832073 120.374863"/>
            <path id="path9" fill="#ffffff" stroke="none" d="M 120.365875 51.741341 L 51.832073 51.741341 L 51.832073 0.628151 C 45.857704 1.485619 40.167492 3.216507 34.892056 5.683228 L 34.892056 51.741341 L 0.638119 51.741341 C 0.224339 54.600914 -0 57.524284 -0 60.497505 C -0 63.277313 0.205395 66.003265 0.565333 68.683365 L 34.892056 68.683365 L 34.892056 115.318764 C 40.167492 117.783508 45.856709 119.51339 51.832073 120.375832 L 51.832073 68.684364 L 120.43866 68.684364 C 120.800598 66.004272 121.00399 63.279305 121.00399 60.498508 C 121.00399 57.524284 120.781654 54.600914 120.365875 51.741341"/>
        </g>
    </g>
</svg>
