<?xml version="1.0" encoding="UTF-8"?>
<!-- Generated by Pixelmator Pro 3.6.18 -->
<svg width="652" height="620" viewBox="0 0 652 620" xmlns="http://www.w3.org/2000/svg">
    <g id="Group">
        <g id="g1">
            <path id="Path" fill="#272525" stroke="none" d="M 281.437622 345.369263 C 281.437622 347.844971 280.410065 349.955902 278.358368 351.69635 C 276.304352 353.436737 273.817719 354.309814 270.902008 354.309814 C 269.387268 354.309814 267.876038 354.03421 266.363647 353.486511 C 264.850128 352.938812 263.554626 352.065704 262.474854 350.873016 L 199.433624 281.009064 L 199.433624 345.370422 C 199.433624 347.84613 198.380508 349.957092 196.274323 351.697449 C 194.164642 353.437897 191.653656 354.310974 188.7379 354.310974 C 185.820999 354.310974 183.333221 353.437897 181.285004 351.697449 C 179.227493 349.957092 178.203384 347.84613 178.203384 345.370422 L 178.203384 254.606567 C 178.203384 252.584778 178.903915 250.817719 180.310745 249.310089 C 181.715286 247.796631 183.387726 246.744049 185.335037 246.146545 C 187.278885 245.547913 189.330566 245.480713 191.491272 245.939301 C 193.651993 246.400116 195.5448 247.497894 197.163895 249.240601 L 260.367462 319.101074 L 260.367462 246.763702 L 281.437622 246.763702 L 281.437622 345.369263 Z"/>
            <path id="path1" fill="#272525" stroke="none" d="M 319.032745 345.369263 C 319.032745 347.844971 317.978455 349.955902 315.871124 351.69635 C 313.768372 353.436737 311.252747 354.309814 308.337036 354.309814 C 305.421265 354.309814 302.934601 353.436737 300.882935 351.69635 C 298.828949 349.955902 297.805969 347.844971 297.805969 345.369263 L 297.805969 246.761414 L 319.033905 246.761414 L 319.033905 345.369263 Z"/>
            <path id="path2" fill="#272525" stroke="none" d="M 335.078644 354.309814 L 335.078644 255.701996 C 335.078644 253.226288 336.131775 251.115326 338.237915 249.374908 C 340.342987 247.632202 342.853973 246.761414 345.772034 246.761414 C 348.688965 246.761414 351.172089 247.632202 353.226105 249.374908 C 355.277802 251.115326 356.307739 253.226288 356.307739 255.701996 L 356.307739 336.43219 L 410.937988 336.43219 L 401.229279 354.308655 L 335.078644 354.308655 Z"/>
        </g>
        <g id="g2">
            <path id="path3" fill="#272525" stroke="none" d="M 525.983765 342.048248 C 527.279236 344.710388 527.279236 347.070282 525.983765 349.137238 C 524.688232 351.193756 522.848816 352.663208 520.473511 353.531677 C 518.097107 354.409424 515.581421 354.542542 512.939392 353.946228 C 510.288086 353.349854 508.319916 351.724121 507.023193 349.06546 L 496.163971 327.747528 L 443.493744 327.747528 L 432.634491 349.06546 C 431.341278 351.724121 429.36618 353.348694 426.720673 353.946228 C 424.071655 354.542542 407.307831 354.342224 407.307831 354.342224 C 407.307831 354.342224 412.37851 344.711548 413.674011 342.048248 L 460.185669 251.143127 C 461.048523 249.586823 462.264008 248.28064 463.830933 247.22229 C 465.398987 246.169708 467.369507 245.643982 469.747101 245.643982 C 472.233734 245.643982 474.257599 246.169708 475.825623 247.22229 C 477.391357 248.27951 478.606842 249.586823 479.470886 251.143127 L 525.983765 342.048248 Z M 469.908325 276.311218 L 452.731598 309.869873 L 486.926147 309.869873 L 469.908325 276.311218 Z"/>
        </g>
        <g id="g3">
            <path id="path4" fill="#272525" stroke="none" d="M 635.374207 345.369263 C 635.374207 347.844971 634.348999 349.955902 632.292664 351.69635 C 630.240967 353.436737 627.752014 354.309814 624.839722 354.309814 C 623.323853 354.309814 621.811523 354.03421 620.304871 353.486511 C 618.784302 352.938812 617.491211 352.065704 616.416077 350.873016 L 553.372498 281.009064 L 553.372498 345.370422 C 553.372498 347.84613 552.315918 349.957092 550.213257 351.697449 C 548.103516 353.437897 545.59259 354.310974 542.674438 354.310974 C 539.757568 354.310974 537.274414 353.437897 535.221619 351.697449 C 533.167603 349.957092 532.142334 347.84613 532.142334 345.370422 L 532.142334 254.606567 C 532.142334 252.584778 532.845093 250.817719 534.247375 249.310089 C 535.654175 247.796631 537.328979 246.744049 539.272766 246.146545 C 541.217773 245.547913 543.26825 245.480713 545.431335 245.939301 C 547.589722 246.400116 549.480225 247.497894 551.099304 249.240601 L 614.305237 319.101074 L 614.305237 246.763702 L 635.373108 246.763702 L 635.373108 345.369263 Z"/>
        </g>
        <g id="g4">
            <path id="path5" fill="#ba262c" stroke="none" d="M 16.65761 319.398682 C 19.915503 343.456299 35.357151 363.634827 56.587379 373.559631 L 56.587379 319.398682 L 16.65761 319.398682"/>
            <path id="path6" fill="#ba262c" stroke="none" d="M 56.587379 246.232208 C 35.555477 256.060944 20.198496 275.968506 16.742277 299.722717 L 56.587379 299.722717 L 56.587379 246.232208"/>
            <path id="path7" fill="#ba262c" stroke="none" d="M 156.012833 299.722717 C 151.073212 265.736816 121.789314 239.631897 86.381622 239.631897 C 82.956711 239.631897 79.587479 239.887817 76.291306 240.36142 L 76.291306 299.722717 L 156.012833 299.722717"/>
            <path id="path8" fill="#ba262c" stroke="none" d="M 76.292473 379.431641 C 79.588638 379.904053 82.957878 380.157654 86.382774 380.157654 C 122.017799 380.157654 151.446686 353.709991 156.097504 319.398682 L 76.292473 319.398682 L 76.292473 379.431641"/>
            <path id="path9" fill="#ffffff" stroke="none" d="M 156.012833 299.722717 L 76.292473 299.722717 L 76.292473 240.36142 C 69.342918 241.357239 62.723911 243.367432 56.587379 246.232208 L 56.587379 299.722717 L 16.742277 299.722717 C 16.260958 303.043762 16 306.438873 16 309.891876 C 16 313.12027 16.23892 316.286102 16.65761 319.398682 L 56.587379 319.398682 L 56.587379 373.559631 C 62.723911 376.422119 69.341766 378.431152 76.292473 379.432739 L 76.292473 319.399841 L 156.097504 319.399841 C 156.518524 316.287292 156.755112 313.122589 156.755112 309.893036 C 156.755112 306.438873 156.496475 303.043762 156.012833 299.722717"/>
        </g>
    </g>
</svg>
