<?xml version="1.0" encoding="UTF-8"?>
<!-- Generated by Pixelmator Pro 3.6.18 -->
<svg width="64" height="64" viewBox="0 0 64 64" xmlns="http://www.w3.org/2000/svg">
    <path id="Path" fill="#000000" stroke="none" d="M 16.601 55.486248 C 17.540751 56.317245 19.076 56.1185 20.0285 55.039253 L 53.4035 17.301498 C 54.35675 16.223751 54.368 14.675751 53.427502 13.843998 L 47.399002 8.512249 C 46.459251 7.681248 44.924 7.8815 43.970749 8.959248 L 10.5965 46.69775 C 9.64325 47.777 9.632 49.323502 10.5725 50.154503 L 16.601 55.486248 Z"/>
    <path id="path1" fill="#000000" stroke="none" d="M 24.7505 16.375248 C 24.7505 21.000774 21.000772 24.7505 16.37525 24.7505 C 11.749727 24.7505 8 21.000774 8 16.375248 C 8 11.749729 11.749727 8 16.37525 8 C 21.000772 8 24.7505 11.749729 24.7505 16.375248 Z"/>
    <path id="path2" fill="#000000" stroke="none" d="M 56 47.624748 C 56 52.250271 52.250271 56 47.624752 56 C 42.999229 56 39.2495 52.250271 39.2495 47.624748 C 39.2495 42.999229 42.999229 39.2495 47.624752 39.2495 C 52.250271 39.2495 56 42.999229 56 47.624748 Z"/>
</svg>
