<?xml version="1.0" encoding="UTF-8"?>
<svg width="64px" height="64px" viewBox="0 0 64 64" version="1.1" xmlns="http://www.w3.org/2000/svg" xmlns:xlink="http://www.w3.org/1999/xlink">
    <title>measure_carbon_filter</title>
    <g id="measure_carbon_filter" stroke="none" stroke-width="1" fill="none" fill-rule="evenodd">
        <path d="M32,8 C33.1045695,8 34,8.8954305 34,10 L34,54 C34,55.1045695 33.1045695,56 32,56 C30.8954305,56 30,55.1045695 30,54 L30,10 C30,8.8954305 30.8954305,8 32,8 Z M25,26 C26.1045695,26 27,25.1045695 27,24 C27,22.8954305 26.1045695,22 25,22 C23.8954305,22 23,22.8954305 23,24 C23,25.1045695 23.8954305,26 25,26 Z M25,34 C26.1045695,34 27,33.1045695 27,32 C27,30.8954305 26.1045695,30 25,30 C23.8954305,30 23,30.8954305 23,32 C23,33.1045695 23.8954305,34 25,34 Z M25,42 C26.1045695,42 27,41.1045695 27,40 C27,38.8954305 26.1045695,38 25,38 C23.8954305,38 23,38.8954305 23,40 C23,41.1045695 23.8954305,42 25,42 Z M25,50 C26.1045695,50 27,49.1045695 27,48 C27,46.8954305 26.1045695,46 25,46 C23.8954305,46 23,46.8954305 23,48 C23,49.1045695 23.8954305,50 25,50 Z M14,17 C14.5522847,17 15,16.5522847 15,16 C15,15.4477153 14.5522847,15 14,15 C13.4477153,15 13,15.4477153 13,16 C13,16.5522847 13.4477153,17 14,17 Z M14,25 C14.5522847,25 15,24.5522847 15,24 C15,23.4477153 14.5522847,23 14,23 C13.4477153,23 13,23.4477153 13,24 C13,24.5522847 13.4477153,25 14,25 Z M14,33 C14.5522847,33 15,32.5522847 15,32 C15,31.4477153 14.5522847,31 14,31 C13.4477153,31 13,31.4477153 13,32 C13,32.5522847 13.4477153,33 14,33 Z M14,41 C14.5522847,41 15,40.5522847 15,40 C15,39.4477153 14.5522847,39 14,39 C13.4477153,39 13,39.4477153 13,40 C13,40.5522847 13.4477153,41 14,41 Z M14,49 C14.5522847,49 15,48.5522847 15,48 C15,47.4477153 14.5522847,47 14,47 C13.4477153,47 13,47.4477153 13,48 C13,48.5522847 13.4477153,49 14,49 Z M18,53 C18.5522847,53 19,52.5522847 19,52 C19,51.4477153 18.5522847,51 18,51 C17.4477153,51 17,51.4477153 17,52 C17,52.5522847 17.4477153,53 18,53 Z M18,13 C18.5522847,13 19,12.5522847 19,12 C19,11.4477153 18.5522847,11 18,11 C17.4477153,11 17,11.4477153 17,12 C17,12.5522847 17.4477153,13 18,13 Z M10,13 C10.5522847,13 11,12.5522847 11,12 C11,11.4477153 10.5522847,11 10,11 C9.44771525,11 9,11.4477153 9,12 C9,12.5522847 9.44771525,13 10,13 Z M10,53 C10.5522847,53 11,52.5522847 11,52 C11,51.4477153 10.5522847,51 10,51 C9.44771525,51 9,51.4477153 9,52 C9,52.5522847 9.44771525,53 10,53 Z M10,21 C10.5522847,21 11,20.5522847 11,20 C11,19.4477153 10.5522847,19 10,19 C9.44771525,19 9,19.4477153 9,20 C9,20.5522847 9.44771525,21 10,21 Z M10,29 C10.5522847,29 11,28.5522847 11,28 C11,27.4477153 10.5522847,27 10,27 C9.44771525,27 9,27.4477153 9,28 C9,28.5522847 9.44771525,29 10,29 Z M10,37 C10.5522847,37 11,36.5522847 11,36 C11,35.4477153 10.5522847,35 10,35 C9.44771525,35 9,35.4477153 9,36 C9,36.5522847 9.44771525,37 10,37 Z M10,45 C10.5522847,45 11,44.5522847 11,44 C11,43.4477153 10.5522847,43 10,43 C9.44771525,43 9,43.4477153 9,44 C9,44.5522847 9.44771525,45 10,45 Z M24,17 C25.1045695,17 26,16.1045695 26,15 C26,13.8954305 25.1045695,13 24,13 C22.8954305,13 22,13.8954305 22,15 C22,16.1045695 22.8954305,17 24,17 Z M19,22 C20.1045695,22 21,21.1045695 21,20 C21,18.8954305 20.1045695,18 19,18 C17.8954305,18 17,18.8954305 17,20 C17,21.1045695 17.8954305,22 19,22 Z M19,30 C20.1045695,30 21,29.1045695 21,28 C21,26.8954305 20.1045695,26 19,26 C17.8954305,26 17,26.8954305 17,28 C17,29.1045695 17.8954305,30 19,30 Z M19,38 C20.1045695,38 21,37.1045695 21,36 C21,34.8954305 20.1045695,34 19,34 C17.8954305,34 17,34.8954305 17,36 C17,37.1045695 17.8954305,38 19,38 Z M19,46 C20.1045695,46 21,45.1045695 21,44 C21,42.8954305 20.1045695,42 19,42 C17.8954305,42 17,42.8954305 17,44 C17,45.1045695 17.8954305,46 19,46 Z" id="Combined-Shape" fill="#000000" fill-rule="nonzero"></path>
        <g id="%" transform="translate(38.0971, 20.9219)" fill="#000000" fill-rule="nonzero">
            <path d="M0,5.90625 L0,4.703125 C0,3.83854167 0.158854167,3.05208333 0.4765625,2.34375 C0.794270833,1.63541667 1.27018229,1.06770833 1.90429688,0.640625 C2.53841146,0.213541667 3.31477865,0 4.23339844,0 C5.19010417,0 5.98734538,0.213541667 6.62512207,0.640625 C7.26289876,1.06770833 7.73624674,1.63541667 8.04516602,2.34375 C8.35408529,3.05208333 8.50854492,3.83854167 8.50854492,4.703125 L8.50854492,5.90625 C8.50854492,6.75 8.35229492,7.52604167 8.03979492,8.234375 C7.72729492,8.94270833 7.25655111,9.51041667 6.62756348,9.9375 C5.99857585,10.3645833 5.2109375,10.578125 4.26464844,10.578125 C3.33561198,10.578125 2.55318197,10.3645833 1.9173584,9.9375 C1.28153483,9.51041667 0.803019206,8.94270833 0.481811523,8.234375 C0.160603841,7.52604167 0,6.75 0,5.90625 Z M2.86157227,4.703125 L2.86157227,5.90625 C2.86157227,6.26236979 2.91503906,6.5994873 3.02197266,6.91760254 C3.12890625,7.23571777 3.28507487,7.49072266 3.49047852,7.68261719 C3.69588216,7.87451172 3.9539388,7.97045898 4.26464844,7.97045898 C4.58219401,7.97045898 4.84183757,7.87451172 5.0435791,7.68261719 C5.24532064,7.49072266 5.39457194,7.23571777 5.49133301,6.91760254 C5.58809408,6.5994873 5.63647461,6.26236979 5.63647461,5.90625 L5.63647461,4.703125 C5.63647461,4.33968099 5.58723958,3.99552409 5.48876953,3.6706543 C5.39029948,3.34578451 5.23844401,3.08740234 5.03320312,2.89550781 C4.82796224,2.70361328 4.56136068,2.60766602 4.23339844,2.60766602 C3.93310547,2.60766602 3.68029785,2.70361328 3.47497559,2.89550781 C3.26965332,3.08740234 3.11608887,3.34578451 3.01428223,3.6706543 C2.91247559,3.99552409 2.86157227,4.33968099 2.86157227,4.703125 Z M8.98168945,18.708252 L8.98168945,17.5 C8.98168945,16.6458333 9.14485677,15.8645833 9.47119141,15.15625 C9.79752604,14.4479167 10.2770182,13.8802083 10.909668,13.453125 C11.5423177,13.0260417 12.3179525,12.8125 13.2365723,12.8125 C14.1931152,12.8125 14.9858805,13.0260417 15.6148682,13.453125 C16.2438558,13.8802083 16.7154541,14.4479167 17.0296631,15.15625 C17.3438721,15.8645833 17.5009766,16.6458333 17.5009766,17.5 L17.5009766,18.708252 C17.5009766,19.5624186 17.3446452,20.3436686 17.0319824,21.052002 C16.7193197,21.7603353 16.2503255,22.3280436 15.625,22.755127 C14.9996745,23.1822103 14.2138672,23.395752 13.2675781,23.395752 C12.3385417,23.395752 11.5533447,23.1822103 10.9119873,22.755127 C10.2706299,22.3280436 9.78857422,21.7603353 9.46582031,21.052002 C9.14306641,20.3436686 8.98168945,19.5624186 8.98168945,18.708252 Z M11.8540039,17.5 L11.8540039,18.708252 C11.8540039,19.0611165 11.9155273,19.3974609 12.0385742,19.7172852 C12.1616211,20.0371094 12.3301595,20.2955322 12.5441895,20.4925537 C12.7582194,20.6895752 12.999349,20.7880859 13.2675781,20.7880859 C13.6486003,20.7880859 13.9364421,20.6895752 14.1311035,20.4925537 C14.325765,20.2955322 14.4573568,20.0379639 14.5258789,19.7198486 C14.594401,19.4017334 14.6286621,19.0645345 14.6286621,18.708252 L14.6286621,17.5 C14.6286621,17.1334635 14.5802409,16.7911377 14.4833984,16.4730225 C14.386556,16.1549072 14.2354736,15.8999023 14.0301514,15.7080078 C13.8248291,15.5161133 13.5603027,15.420166 13.2365723,15.420166 C12.9292806,15.420166 12.6729736,15.5161133 12.4676514,15.7080078 C12.2623291,15.8999023 12.108724,16.1549072 12.0068359,16.4730225 C11.9049479,16.7911377 11.8540039,17.1334635 11.8540039,17.5 Z M14.4038086,3.59887695 L5.07568359,21.380127 L2.98339844,20.1809082 L12.3117676,2.39941406 L14.4038086,3.59887695 Z" id="Shape"></path>
        </g>
    </g>
</svg>