<?xml version="1.0" encoding="UTF-8"?>
<svg width="512" height="512" viewBox="0 0 512 512" xmlns="http://www.w3.org/2000/svg">
    <path id="Path" fill="#000000" stroke="none" d="M 411.144989 450.989014 L 100.855003 450.989014 C 78.886002 450.989014 61.012001 433.11499 61.012001 411.145996 L 61.012001 100.855011 C 61.012001 78.88501 78.886002 61.011993 100.855003 61.011993 L 411.145996 61.011993 C 433.11499 61.011993 450.989014 78.885986 450.989014 100.855011 L 450.989014 411.145996 C 450.989014 433.11499 433.11499 450.989014 411.144989 450.989014 Z M 100.855003 80.932983 C 89.870003 80.932983 80.932999 89.869995 80.932999 100.855011 L 80.932999 411.145996 C 80.932999 422.131012 89.870003 431.067993 100.855003 431.067993 L 411.145996 431.067993 C 422.131012 431.067993 431.067993 422.131012 431.067993 411.145996 L 431.067993 100.855011 C 431.067993 89.869995 422.131012 80.932983 411.145996 80.932983 L 100.855003 80.932983 Z"/>
    <path id="path1" fill="#000000" stroke="none" d="M 391.019989 400.980988 L 120.980003 400.980988 C 115.478996 400.980988 111.018997 396.520996 111.018997 391.019989 L 111.018997 120.980011 C 111.018997 115.479004 115.478996 111.018982 120.980003 111.018982 L 391.019989 111.018982 C 396.520996 111.018982 400.980988 115.479004 400.980988 120.980011 L 400.980988 391.019989 C 400.980988 396.520996 396.520996 400.980988 391.019989 400.980988 Z M 130.940994 381.05899 L 381.059998 381.05899 L 381.059998 130.940979 L 130.940994 130.940979 L 130.940994 381.05899 Z M 501.036987 190.949005 L 441.028015 190.949005 C 435.527008 190.949005 431.066986 186.489014 431.066986 180.988007 C 431.066986 175.487 435.527008 171.026978 441.028015 171.026978 L 501.036987 171.026978 C 506.537994 171.026978 510.997986 175.487 510.997986 180.988007 C 510.997986 186.48999 506.537994 190.949005 501.036987 190.949005 Z M 501.036987 240.957001 L 441.028015 240.957001 C 435.527008 240.957001 431.066986 236.497009 431.066986 230.996002 C 431.066986 225.494995 435.527008 221.035004 441.028015 221.035004 L 501.036987 221.035004 C 506.537994 221.035004 510.997986 225.494995 510.997986 230.996002 C 510.997986 236.497986 506.537994 240.957001 501.036987 240.957001 Z M 501.036987 290.963989 L 441.028015 290.963989 C 435.527008 290.963989 431.066986 286.503998 431.066986 281.002991 C 431.066986 275.502014 435.527008 271.041992 441.028015 271.041992 L 501.036987 271.041992 C 506.537994 271.041992 510.997986 275.502014 510.997986 281.002991 C 510.997986 286.503998 506.537994 290.963989 501.036987 290.963989 Z M 501.036987 340.971985 L 441.028015 340.971985 C 435.527008 340.971985 431.066986 336.511993 431.066986 331.010986 C 431.066986 325.51001 435.527008 321.049988 441.028015 321.049988 L 501.036987 321.049988 C 506.537994 321.049988 510.997986 325.51001 510.997986 331.010986 C 510.997986 336.511993 506.537994 340.971985 501.036987 340.971985 Z M 70.972 190.949005 L 10.963 190.949005 C 5.462 190.949005 1.002 186.489014 1.002 180.988007 C 1.002 175.487 5.462 171.026978 10.963 171.026978 L 70.972 171.026978 C 76.473 171.026978 80.932999 175.487 80.932999 180.988007 C 80.932999 186.48999 76.473 190.949005 70.972 190.949005 Z M 70.972 240.957001 L 10.963 240.957001 C 5.462 240.957001 1.002 236.497009 1.002 230.996002 C 1.002 225.494995 5.462 221.035004 10.963 221.035004 L 70.972 221.035004 C 76.473 221.035004 80.932999 225.494995 80.932999 230.996002 C 80.932999 236.497986 76.473 240.957001 70.972 240.957001 Z M 70.972 290.963989 L 10.963 290.963989 C 5.462 290.963989 1.002 286.503998 1.002 281.002991 C 1.002 275.502014 5.462 271.041992 10.963 271.041992 L 70.972 271.041992 C 76.473 271.041992 80.932999 275.502014 80.932999 281.002991 C 80.932999 286.503998 76.473 290.963989 70.972 290.963989 Z M 70.972 340.971985 L 10.963 340.971985 C 5.462 340.971985 1.002 336.511993 1.002 331.010986 C 1.002 325.51001 5.462 321.049988 10.963 321.049988 L 70.972 321.049988 C 76.473 321.049988 80.932999 325.51001 80.932999 331.010986 C 80.932999 336.511993 76.473 340.971985 70.972 340.971985 Z M 331.010986 510.997986 C 325.51001 510.997986 321.049988 506.537994 321.049988 501.036987 L 321.049988 441.028015 C 321.049988 435.527008 325.51001 431.066986 331.010986 431.066986 C 336.511993 431.066986 340.971985 435.527008 340.971985 441.028015 L 340.971985 501.036987 C 340.971985 506.537994 336.511993 510.997986 331.010986 510.997986 Z M 281.002991 510.997986 C 275.502014 510.997986 271.041992 506.537994 271.041992 501.036987 L 271.041992 441.028015 C 271.041992 435.527008 275.502014 431.066986 281.002991 431.066986 C 286.503998 431.066986 290.963989 435.527008 290.963989 441.028015 L 290.963989 501.036987 C 290.963989 506.537994 286.503998 510.997986 281.002991 510.997986 Z M 230.996994 510.997986 C 225.496002 510.997986 221.035995 506.537994 221.035995 501.036987 L 221.035995 441.028015 C 221.035995 435.527008 225.496002 431.066986 230.996994 431.066986 C 236.498001 431.066986 240.957993 435.527008 240.957993 441.028015 L 240.957993 501.036987 C 240.957993 506.537994 236.498001 510.997986 230.996994 510.997986 Z M 180.988998 510.997986 C 175.488007 510.997986 171.028 506.537994 171.028 501.036987 L 171.028 441.028015 C 171.028 435.527008 175.488007 431.066986 180.988998 431.066986 C 186.490005 431.066986 190.949997 435.527008 190.949997 441.028015 L 190.949997 501.036987 C 190.949997 506.537994 186.490005 510.997986 180.988998 510.997986 Z M 331.010986 80.932983 C 325.51001 80.932983 321.049988 76.472992 321.049988 70.971985 L 321.049988 10.963013 C 321.049988 5.462006 325.51001 1.002014 331.010986 1.002014 C 336.511993 1.002014 340.971985 5.462006 340.971985 10.963013 L 340.971985 70.971985 C 340.971985 76.472992 336.511993 80.932983 331.010986 80.932983 Z M 281.002991 80.932983 C 275.502014 80.932983 271.041992 76.472992 271.041992 70.971985 L 271.041992 10.963013 C 271.041992 5.462006 275.502014 1.002014 281.002991 1.002014 C 286.503998 1.002014 290.963989 5.462006 290.963989 10.963013 L 290.963989 70.971985 C 290.963989 76.472992 286.503998 80.932983 281.002991 80.932983 Z M 230.996994 80.932983 C 225.496002 80.932983 221.035995 76.472992 221.035995 70.971985 L 221.035995 10.963013 C 221.035995 5.462006 225.496002 1.002014 230.996994 1.002014 C 236.498001 1.002014 240.957993 5.462006 240.957993 10.963013 L 240.957993 70.971985 C 240.957993 76.472992 236.498001 80.932983 230.996994 80.932983 Z M 180.988998 80.932983 C 175.488007 80.932983 171.028 76.472992 171.028 70.971985 L 171.028 10.963013 C 171.028 5.462006 175.488007 1.002014 180.988998 1.002014 C 186.490005 1.002014 190.949997 5.462006 190.949997 10.963013 L 190.949997 70.971985 C 190.949997 76.472992 186.490005 80.932983 180.988998 80.932983 Z"/>
    <path id="path2" fill="#000000" stroke="none" d="M 195.990997 250.958008 C 190.490005 250.958008 186.029999 246.498993 186.029999 240.997986 L 186.029999 180.989014 C 186.029999 175.488007 190.490005 171.028015 195.990997 171.028015 L 246.039001 171.028015 L 246.039001 120.980011 C 246.039001 115.479004 250.498993 111.018982 256 111.018982 C 261.501007 111.018982 265.960999 115.479004 265.960999 120.980011 L 265.960999 180.989014 C 265.960999 186.48999 261.501007 190.950012 256 190.950012 L 205.951996 190.950012 L 205.951996 240.997986 C 205.951996 246.498993 201.492004 250.958008 195.990997 250.958008 Z"/>
    <path id="path3" fill="#000000" stroke="none" d="M 195.990997 300.966003 C 176.710999 300.966003 161.026993 285.282013 161.026993 266.002014 C 161.026993 246.721985 176.710999 231.036987 195.990997 231.036987 C 215.270996 231.036987 230.955994 246.721985 230.955994 266.002014 C 230.955994 285.282013 215.270004 300.966003 195.990997 300.966003 Z M 195.990997 250.958008 C 187.695999 250.958008 180.949005 257.707001 180.949005 266.001007 C 180.949005 274.295013 187.697006 281.042999 195.990997 281.042999 C 204.285004 281.042999 211.033997 274.295013 211.033997 266.001007 C 211.033997 257.707001 204.285004 250.958008 195.990997 250.958008 Z M 256 395.980011 C 250.498993 395.980011 246.039001 391.519989 246.039001 386.019012 L 246.039001 331.010986 C 246.039001 325.51001 250.498993 321.049988 256 321.049988 L 306.048004 321.049988 L 306.048004 271.002014 C 306.048004 265.501007 310.507996 261.040985 316.009003 261.040985 C 321.51001 261.040985 325.970001 265.501007 325.970001 271.002014 L 325.970001 331.01001 C 325.970001 336.510986 321.51001 340.971008 316.009003 340.971008 L 265.960999 340.971008 L 265.960999 386.019012 C 265.960999 391.519989 261.501007 395.980011 256 395.980011 Z"/>
    <path id="path4" fill="#000000" stroke="none" d="M 316.009003 280.963013 C 296.729004 280.963013 281.044006 265.278015 281.044006 245.997986 C 281.044006 226.718018 296.729004 211.03302 316.009003 211.03302 C 335.289001 211.03302 350.972992 226.718018 350.972992 245.997986 C 350.972992 265.278015 335.289001 280.963013 316.009003 280.963013 Z M 316.009003 230.955017 C 307.713989 230.955017 300.966003 237.703003 300.966003 245.997986 C 300.966003 254.292999 307.714996 261.040985 316.009003 261.040985 C 324.303009 261.040985 331.050995 254.291992 331.050995 245.997986 C 331.052002 237.703979 324.303986 230.955017 316.009003 230.955017 Z"/>
    <path id="Shape" fill="#000000" stroke="none" fill-rule="evenodd" d="M 257.088226 430.758972 C 96.348526 431.017944 96.348526 431.017944 91.924263 428.68219 C 89.490921 427.397552 86.150002 424.42981 84.5 422.087219 C 81.5 417.827942 81.5 417.827942 81.240921 257.169128 C 80.98185 96.510284 80.98185 96.510284 83.29557 92.014282 C 84.610374 89.459381 87.457695 86.219147 89.890663 84.509155 C 94.172043 81.5 94.172043 81.5 254.830872 81.240936 C 415.489716 80.981842 415.489716 80.981842 419.985718 83.295563 C 422.540619 84.610382 425.780853 87.457703 427.490845 89.890656 C 430.5 94.172058 430.5 94.172058 430.759064 254.830872 C 431.018158 415.489716 431.018158 415.489716 428.704437 419.985718 C 427.389618 422.540649 424.542297 425.780853 422.109344 427.490845 C 417.827942 430.5 417.827942 430.5 257.088226 430.758972 Z M 256 401 C 394.200012 401 394.200012 401 397.600006 397.600006 C 401 394.200012 401 394.200012 401 256 C 401 117.799988 401 117.799988 397.600006 114.399994 C 394.200012 111 394.200012 111 256 111 C 117.800003 111 117.800003 111 114.400002 114.399994 C 111 117.799988 111 117.799988 111 256 C 111 394.200012 111 394.200012 114.400002 397.600006 C 117.800003 401 117.800003 401 256 401 Z"/>
</svg>
