<?xml version="1.0" encoding="UTF-8"?>
<!-- Generated by Pixelmator Pro 3.7.1 -->
<svg width="165" height="165" viewBox="0 0 165 165" xmlns="http://www.w3.org/2000/svg">
    <g id="Group">
        <g id="g1">
            <path id="Path" fill="#000000" stroke="none" d="M 113.511345 146.199997 C 116.011345 141.799988 114.411339 136.299988 110.011345 133.799988 L 92.311348 123.899994 L 92.311348 98.099991 L 114.211342 110.699997 L 114.211342 130.599991 C 114.211342 135.599991 118.311348 139.699997 123.311348 139.699997 C 128.31134 139.699997 132.411346 135.599991 132.411346 130.599991 L 132.411346 121.299988 L 139.111328 125.199997 C 140.511353 125.999985 142.111328 126.399994 143.711334 126.399994 C 146.911346 126.399994 149.911346 124.799988 151.611328 121.799988 C 154.111328 117.399994 152.611328 111.799988 148.31134 109.299988 L 141.411346 105.299988 L 150.111328 100.099991 C 154.411346 97.499985 155.911346 91.899994 153.31134 87.599991 C 150.711334 83.299988 145.111328 81.799988 140.81134 84.399994 L 123.411339 94.799988 L 101.911339 82.399994 L 123.411339 69.999992 L 140.611328 79.899994 C 142.011353 80.699997 143.611328 81.099991 145.211334 81.099991 C 148.411346 81.099991 151.411346 79.499985 153.111328 76.499992 C 155.611328 72.099991 154.111328 66.499992 149.81134 63.999992 L 141.81134 59.399994 L 147.711334 55.999992 C 152.111328 53.499992 153.611328 47.899994 151.011353 43.499992 C 148.511353 39.099991 142.911346 37.599991 138.611328 40.199989 L 132.511353 43.699989 L 132.31134 33.599991 C 132.211334 28.599991 128.011353 24.499985 123.111336 24.599991 C 118.111336 24.699982 114.011345 28.799988 114.111336 33.899994 L 114.411339 54.199989 L 92.511345 66.799988 L 92.511345 41.099991 L 109.711342 31.199982 C 114.111336 28.699982 115.611336 23.099991 113.011345 18.699982 C 110.511345 14.299988 104.911339 12.799988 100.611336 15.399994 L 92.611336 19.999985 L 92.611336 10.099991 C 92.611336 5.099991 88.511345 0.999985 83.511345 0.999985 C 78.511345 0.999985 74.411339 5.099991 74.411339 10.099991 L 74.411339 20.199982 L 65.611343 15.199982 C 61.211342 12.699982 55.611343 14.299988 53.211342 18.699982 C 50.711342 23.099991 52.31134 28.699982 56.711342 31.099991 L 74.411339 40.999992 L 74.411339 66.399994 L 51.911339 53.399994 L 51.911339 33.699982 C 51.911339 28.699982 47.81134 24.599991 42.81134 24.599991 C 37.81134 24.599991 33.711342 28.699982 33.711342 33.699982 L 33.711342 42.999992 L 24.111343 37.499992 C 19.711342 34.999985 14.211342 36.499985 11.711342 40.799988 C 9.211342 45.199989 10.711342 50.799988 15.011341 53.299988 L 24.81134 58.999992 L 16.111343 64.199989 C 11.81134 66.799988 10.31134 72.399994 12.911343 76.699997 C 14.611343 79.599991 17.611343 81.199997 20.711342 81.199997 C 22.31134 81.199997 23.911339 80.799988 25.411339 79.899994 L 42.81134 69.499992 L 65.611343 82.699997 L 42.81134 95.899994 L 25.611343 85.999985 C 21.211342 83.499985 15.711342 84.999985 13.211342 89.299988 C 10.711342 93.699997 12.211342 99.299988 16.511341 101.799988 L 24.511345 106.399994 L 18.111343 110.099991 C 13.711342 112.599991 12.211342 118.199997 14.81134 122.599991 C 16.511341 125.499985 19.611343 127.199997 22.711342 127.199997 C 24.31134 127.199997 25.81134 126.799988 27.31134 125.999985 L 33.911339 122.199997 L 34.111343 132.299988 C 34.211342 137.299988 38.211342 141.299988 43.211342 141.299988 C 43.31134 141.299988 43.31134 141.299988 43.31134 141.299988 C 48.31134 141.199997 52.411339 137.099991 52.31134 131.999985 L 52.011345 111.699997 L 74.411339 98.699997 L 74.411339 124.099991 L 57.211342 133.999985 C 52.81134 136.499985 51.31134 142.099991 53.911339 146.499985 C 55.611343 149.399994 58.711342 151.099991 61.81134 151.099991 C 63.411339 151.099991 64.911339 150.699997 66.411339 149.899994 L 74.411339 145.299988 L 74.411339 155.199997 C 74.411339 160.199997 78.511345 164.299988 83.511345 164.299988 C 88.511345 164.299988 92.611336 160.199997 92.611336 155.199997 L 92.611336 145.099991 L 101.411339 149.999985 C 102.811348 150.799988 104.311348 151.199997 105.811348 151.199997 C 108.811348 150.899994 111.911339 149.199997 113.511345 146.199997 Z"/>
        </g>
    </g>
</svg>
