<?xml version="1.0" ?><svg id="Layer_1" style="enable-background:new 0 0 120 120;" version="1.1" viewBox="0 0 120 120" xml:space="preserve" xmlns="http://www.w3.org/2000/svg" xmlns:xlink="http://www.w3.org/1999/xlink"><style type="text/css">
	.st0{fill:#5673FF;}
</style><path class="st0" d="M101.5,48.4V39c0-1.6-1.3-3-3-3h-8.7c-1.8,0-3.2-1.6-2.9-3.3l1.4-11.1c0.2-1.8-1.2-3.3-2.9-3.3H75.1  c-1.5,0-2.8,1.1-2.9,2.6l-1.6,12.6c-0.2,1.5-1.4,2.6-2.9,2.6H59c-1.8,0-3.2-1.6-2.9-3.3l1.4-11.1c0.2-1.8-1.2-3.3-2.9-3.3H44.2  c-1.5,0-2.8,1.1-2.9,2.6l-1.6,12.6c-0.2,1.5-1.4,2.6-2.9,2.6H25.4c-1.6,0-3,1.3-3,3v9.5c0,1.6,1.3,3,3,3h8.8c1.8,0,3.2,1.6,2.9,3.3  L35.7,66c-0.2,1.5-1.4,2.6-2.9,2.6H21.4c-1.6,0-3,1.3-3,3V81c0,1.6,1.3,3,3,3h8.7c1.8,0,3.2,1.6,2.9,3.3l-1.4,11.1  c-0.2,1.8,1.2,3.3,2.9,3.3h10.3c1.5,0,2.8-1.1,2.9-2.6l1.6-12.6c0.2-1.5,1.4-2.6,2.9-2.6H61c1.8,0,3.2,1.6,2.9,3.3l-1.4,11.1  c-0.2,1.8,1.2,3.3,2.9,3.3h10.3c1.5,0,2.8-1.1,2.9-2.6l1.6-12.6c0.2-1.5,1.4-2.6,2.9-2.6h11.3c1.6,0,3-1.3,3-3v-9.5c0-1.6-1.3-3-3-3  h-8.6c-1.8,0-3.2-1.6-2.9-3.3L84.3,54c0.2-1.5,1.4-2.6,2.9-2.6h11.3C100.2,51.4,101.5,50.1,101.5,48.4z M63.7,68.6H55  c-1.8,0-3.2-1.6-2.9-3.3L53.4,54c0.2-1.5,1.4-2.6,2.9-2.6H65c1.8,0,3.2,1.6,2.9,3.3L66.6,66C66.4,67.5,65.1,68.6,63.7,68.6z"/></svg>