<?xml version="1.0" encoding="UTF-8"?>
<svg width="64px" height="64px" viewBox="0 0 64 64" version="1.1" xmlns="http://www.w3.org/2000/svg" xmlns:xlink="http://www.w3.org/1999/xlink">
    <title>pump_mode</title>
    <g id="pump_mode" stroke="none" stroke-width="1" fill="none" fill-rule="evenodd">
        <path d="M27,6 C28.1045695,6 29,6.8954305 29,8 C29,8.88185382 28.4292591,9.63040396 27.6370136,9.8964142 L27.485957,9.94055109 C26.0245779,10.3054083 25,11.6176635 25,13.1231056 L24.9998993,14.3313356 C27.1970741,13.4604948 29.5641912,13 32,13 C42.1582813,13 50.4546221,20.9719149 50.9741828,31.000905 L51,31 L51,50.8768944 C51,52.3196098 51.9409751,53.5849017 53.3048226,54.0091961 L53.4850713,54.059715 C54.355687,54.276548 55,55.0630303 55,56 C55,57.1045695 54.1045695,58 53,58 L37,58 C35.8954305,58 35,57.1045695 35,56 C35,55.1181462 35.5707409,54.369596 36.3629864,54.1035858 L36.514043,54.0594489 C37.9754221,53.6945917 39,52.3823365 39,50.8768944 L38.9992185,49.6692873 C36.8331856,50.5280268 34.4717104,51 32,51 C21.5065898,51 13,42.4934102 13,32 L13,13.1231056 C13,11.6803902 12.0590249,10.4150983 10.6951774,9.99080386 L10.5149287,9.940285 C9.64431296,9.72345201 9,8.93696968 9,8 C9,6.8954305 9.8954305,6 11,6 L27,6 Z M47.0006695,43.6624624 C45.8614501,45.1256638 44.5128454,46.4178085 42.9998636,47.4938887 L43,50.8768944 C43,51.9859014 42.7494558,53.0476677 42.2961505,54.0009936 L47.7038495,54.0009936 C47.2505442,53.0476677 47,51.9859014 47,50.8768944 L47.0006695,43.6624624 Z M21.7033764,10.0000016 L16.2966236,10.0000016 C16.7496301,10.9530712 17,12.0144844 17,13.1231056 L17,32.0000016 C17,40.2842712 23.7157288,47.0000016 32,47.0000016 C40.2842712,47.0000016 47,40.2842712 47,32.0000016 C47,23.7157288 40.2842712,17.0000016 32,17.0000016 C28.5592615,17.0000016 25.3010524,18.1594705 22.6661361,20.2569732 C21.801946,20.9449044 20.5437031,20.8020183 19.855772,19.9378282 C19.1678408,19.0736381 19.3107269,17.8153952 20.174917,17.1274641 C20.4447785,16.9126431 20.7198578,16.7055725 20.9998489,16.5064036 L21,13.1231056 C21,12.0144844 21.2503699,10.9530712 21.7033764,10.0000016 Z M32,29 C33.6568542,29 35,30.3431458 35,32 C35,33.6568542 33.6568542,35 32,35 C30.3431458,35 29,33.6568542 29,32 C29,30.3431458 30.3431458,29 32,29 Z M23,29 C24.6568542,29 26,30.3431458 26,32 C26,33.6568542 24.6568542,35 23,35 C21.3431458,35 20,33.6568542 20,32 C20,30.3431458 21.3431458,29 23,29 Z M41,29 C42.6568542,29 44,30.3431458 44,32 C44,33.6568542 42.6568542,35 41,35 C39.3431458,35 38,33.6568542 38,32 C38,30.3431458 39.3431458,29 41,29 Z" id="Shape" fill="#000000" fill-rule="nonzero"></path>
    </g>
</svg>