<?xml version="1.0" encoding="UTF-8"?>
<!-- Generated by Pixelmator Pro 3.6.18 -->
<svg width="64" height="64" viewBox="0 0 64 64" xmlns="http://www.w3.org/2000/svg">
    <path id="Path" fill="#000000" stroke="none" d="M 55.422501 9.572502 L 8.5775 9.572502 C 6.1975 9.572502 4.26 11.510002 4.26 13.889999 L 4.26 47.650002 C 4.26 50.029999 6.1975 51.967499 8.5775 51.967499 L 55.419998 51.967499 C 57.799999 51.967499 59.737499 50.029999 59.737499 47.650002 L 59.737499 13.889999 C 59.737499 11.510002 57.799999 9.572502 55.419998 9.572502 Z M 58.025002 47.650002 C 58.025002 49.084999 56.857498 50.252499 55.422501 50.252499 L 8.5775 50.252499 C 7.1425 50.252499 5.975 49.084999 5.975 47.650002 L 5.975 13.889999 C 5.975 12.455002 7.1425 11.287498 8.5775 11.287498 L 55.419998 11.287498 C 56.855 11.287498 58.022499 12.455002 58.022499 13.889999 L 58.022499 47.650002 Z M 16.965 52.712502 L 10.8375 52.712502 C 10.3625 52.712502 9.98 53.095001 9.98 53.57 C 9.98 54.044998 10.3625 54.427502 10.8375 54.427502 L 16.965 54.427502 C 17.440001 54.427502 17.8225 54.044998 17.8225 53.57 C 17.8225 53.095001 17.440001 52.712502 16.965 52.712502 Z M 54.697498 52.712502 L 48.57 52.712502 C 48.095001 52.712502 47.712502 53.095001 47.712502 53.57 C 47.712502 54.044998 48.095001 54.427502 48.57 54.427502 L 54.697498 54.427502 C 55.172501 54.427502 55.555 54.044998 55.555 53.57 C 55.555 53.095001 55.172501 52.712502 54.697498 52.712502 Z"/>
    <path id="path1" fill="#000000" stroke="none" d="M 54.602501 27.075001 L 45.217499 27.075001 C 44.7425 27.075001 44.360001 27.4575 44.360001 27.932503 C 44.360001 28.407501 44.7425 28.790001 45.217499 28.790001 L 54.602501 28.790001 C 55.077499 28.790001 55.459999 28.407501 55.459999 27.932503 C 55.459999 27.4575 55.077499 27.075001 54.602501 27.075001 Z M 54.602501 30.504997 L 45.217499 30.504997 C 44.7425 30.504997 44.360001 30.887501 44.360001 31.362499 C 44.360001 31.837502 44.7425 32.220001 45.217499 32.220001 L 54.602501 32.220001 C 55.077499 32.220001 55.459999 31.837502 55.459999 31.362499 C 55.459999 30.887501 55.077499 30.504997 54.602501 30.504997 Z M 54.602501 33.935001 L 45.217499 33.935001 C 44.7425 33.935001 44.360001 34.317501 44.360001 34.7925 C 44.360001 35.267502 44.7425 35.650002 45.217499 35.650002 L 54.602501 35.650002 C 55.077499 35.650002 55.459999 35.267502 55.459999 34.7925 C 55.459999 34.317501 55.077499 33.935001 54.602501 33.935001 Z M 54.602501 37.365002 L 45.217499 37.365002 C 44.7425 37.365002 44.360001 37.747501 44.360001 38.2225 C 44.360001 38.697498 44.7425 39.080002 45.217499 39.080002 L 54.602501 39.080002 C 55.077499 39.080002 55.459999 38.697498 55.459999 38.2225 C 55.459999 37.747501 55.077499 37.365002 54.602501 37.365002 Z M 54.602501 40.797501 L 45.217499 40.797501 C 44.7425 40.797501 44.360001 41.18 44.360001 41.654999 C 44.360001 42.130001 44.7425 42.512501 45.217499 42.512501 L 54.602501 42.512501 C 55.077499 42.512501 55.459999 42.130001 55.459999 41.654999 C 55.459999 41.18 55.077499 40.797501 54.602501 40.797501 Z M 54.602501 44.227501 L 45.217499 44.227501 C 44.7425 44.227501 44.360001 44.610001 44.360001 45.084999 C 44.360001 45.560001 44.7425 45.942501 45.217499 45.942501 L 54.602501 45.942501 C 55.077499 45.942501 55.459999 45.560001 55.459999 45.084999 C 55.459999 44.610001 55.077499 44.227501 54.602501 44.227501 Z M 54.602501 23.645 L 45.217499 23.645 C 44.7425 23.645 44.360001 24.0275 44.360001 24.502502 C 44.360001 24.977501 44.7425 25.360001 45.217499 25.360001 L 54.602501 25.360001 C 55.077499 25.360001 55.459999 24.977501 55.459999 24.502502 C 55.459999 24.0275 55.077499 23.645 54.602501 23.645 Z M 25.6625 13.904999 C 16.362499 13.904999 8.7975 21.470001 8.7975 30.77 C 8.7975 40.07 16.362499 47.634998 25.6625 47.634998 C 34.962502 47.634998 42.5275 40.07 42.5275 30.77 C 42.5275 21.470001 34.962502 13.904999 25.6625 13.904999 Z M 25.6625 45.919998 C 17.309999 45.919998 10.5125 39.125 10.5125 30.77 C 10.5125 22.415001 17.307501 15.619999 25.6625 15.619999 C 34.017502 15.619999 40.8125 22.415001 40.8125 30.77 C 40.8125 39.125 34.017502 45.919998 25.6625 45.919998 Z M 46.8325 20.012501 C 48.195 20.012501 49.305 18.9025 49.305 17.540001 C 49.305 16.177498 48.195 15.067501 46.8325 15.067501 C 45.470001 15.067501 44.360001 16.177498 44.360001 17.540001 C 44.360001 18.9025 45.470001 20.012501 46.8325 20.012501 Z M 46.8325 16.782501 C 47.25 16.782501 47.59 17.122498 47.59 17.540001 C 47.59 17.9575 47.25 18.297501 46.8325 18.297501 C 46.415001 18.297501 46.075001 17.9575 46.075001 17.540001 C 46.075001 17.122498 46.415001 16.782501 46.8325 16.782501 Z M 52.834999 20.012501 C 54.197498 20.012501 55.307499 18.9025 55.307499 17.540001 C 55.307499 16.177498 54.197498 15.067501 52.834999 15.067501 C 51.4725 15.067501 50.362499 16.177498 50.362499 17.540001 C 50.362499 18.9025 51.4725 20.012501 52.834999 20.012501 Z M 52.834999 16.782501 C 53.252499 16.782501 53.592499 17.122498 53.592499 17.540001 C 53.592499 17.9575 53.252499 18.297501 52.834999 18.297501 C 52.4175 18.297501 52.077499 17.9575 52.077499 17.540001 C 52.077499 17.122498 52.4175 16.782501 52.834999 16.782501 Z"/>
    <path id="path2" fill="#000000" stroke="none" d="M 29.2325 30.075001 C 33.072498 27.5425 33.900002 25.059998 33.880001 23.370003 C 33.852501 21.037498 32.279999 19.355 30.942499 18.622498 C 27.862499 16.93 24.922501 16.459999 22.2125 17.23 C 21.3925 17.462502 20.795 17.970001 20.4825 18.697502 C 19.674999 20.57 21.0625 23.322502 21.209999 23.605 L 23.389999 28.150002 C 19.155001 25.959999 16.5275 26.48 15.0425 27.355 C 13.0275 28.5425 12.3525 30.75 12.385 32.279999 C 12.46 35.794998 13.525 38.572498 15.545 40.537498 C 16.075001 41.052502 16.705 41.322498 17.377501 41.322498 C 17.477501 41.322498 17.58 41.314999 17.682501 41.305 C 19.7075 41.067501 21.397499 38.490002 21.567499 38.220001 L 24.775 33.529999 C 24.9125 38.575001 26.727501 40.685001 28.27 41.555 C 29.120001 42.037498 30.0075 42.227501 30.85 42.227501 C 32.022499 42.227501 33.105 41.860001 33.8675 41.397499 C 36.872501 39.575001 38.747501 37.264999 39.4375 34.532501 C 39.645 33.7075 39.505001 32.935001 39.032501 32.299999 C 37.814999 30.665001 34.737499 30.489998 34.4175 30.477501 L 29.2325 30.080002 Z M 22.057501 19.372498 C 22.129999 19.205002 22.2675 18.995003 22.68 18.877502 C 24.975 18.224998 27.407499 18.635002 30.1175 20.122498 C 31.125 20.674999 32.147499 21.897499 32.165001 23.387501 C 32.1875 25.247498 30.690001 27.147499 27.860001 28.904999 C 27.327499 28.2775 26.545 27.872498 25.6625 27.872498 C 25.5 27.872498 25.342501 27.895 25.184999 27.919998 L 22.745001 22.8325 C 22.285 21.945 21.690001 20.2225 22.057501 19.370003 Z M 25.6625 31.947502 C 25.012501 31.947502 24.485001 31.4175 24.485001 30.767502 C 24.485001 30.1175 25.012501 29.587502 25.6625 29.587502 C 26.3125 29.587502 26.842501 30.1175 26.842501 30.767502 C 26.842501 31.4175 26.3125 31.947502 25.6625 31.947502 Z M 20.135 37.27 C 19.5975 38.112499 18.4 39.487499 17.48 39.595001 C 17.297501 39.6175 17.047501 39.602501 16.7425 39.302502 C 15.0325 37.639999 14.1675 35.330002 14.1025 32.237499 C 14.0775 31.084999 14.63 29.584999 15.9175 28.825001 C 17.535 27.872498 19.9575 28.237499 22.932501 29.849998 C 22.834999 30.139999 22.77 30.442497 22.77 30.764999 C 22.77 31.43 23.002501 32.035 23.379999 32.522499 L 20.135 37.264999 Z M 37.772499 34.105 C 37.1875 36.4175 35.619999 38.32 32.974998 39.922501 C 31.99 40.52 30.415001 40.7925 29.112499 40.057499 C 27.487499 39.137501 26.594999 36.875 26.495001 33.525002 C 27.375 33.2575 28.0725 32.59 28.377501 31.727501 L 34.3125 32.18 C 35.310001 32.224998 37.102501 32.572498 37.654999 33.317501 C 37.764999 33.465 37.877499 33.6875 37.772499 34.102501 Z"/>
</svg>
