<?xml version="1.0" encoding="UTF-8"?>
<svg width="64px" height="64px" viewBox="0 0 64 64" version="1.1" xmlns="http://www.w3.org/2000/svg" xmlns:xlink="http://www.w3.org/1999/xlink">
    <title>hot_water_mode</title>
    <g id="hot_water_mode" stroke="none" stroke-width="1" fill="none" fill-rule="evenodd">
        <path d="M19,27 C22.8593006,27 30,38.0155807 30,45.1458333 C30,51.1478035 25.067885,56 19,56 C12.932115,56 8,51.1478035 8,45.1458333 C8,38.0155807 15.1406994,27 19,27 Z M19,31.217 L18.8681392,31.3287392 C18.6855365,31.485536 18.4815103,31.6772725 18.2632386,31.8993463 C17.3905926,32.787193 16.4080369,34.0340695 15.5054539,35.4264368 C13.3446845,38.7597417 12,42.3058871 12,45.1458333 C12,48.9239056 15.1267595,52 19,52 C22.8732405,52 26,48.9239056 26,45.1458333 C26,42.3058871 24.6553155,38.7597417 22.4945461,35.4264368 C21.5919631,34.0340695 20.6094074,32.787193 19.7367614,31.8993463 C19.5184897,31.6772725 19.3144635,31.485536 19.1318608,31.3287392 L19,31.217 Z M55.7888544,9.10557281 C58.5880823,14.7040286 58.5311762,21.3056195 55.6358536,26.8549879 L51.9104858,33.9952761 C49.608784,38.4068713 49.5635452,43.6549545 51.7888544,48.1055728 C52.2828329,49.0935298 51.8823842,50.2948759 50.8944272,50.7888544 C49.9064702,51.2828329 48.7051241,50.8823842 48.2111456,49.8944272 C45.4119177,44.2959714 45.4688238,37.6943805 48.3641464,32.1450121 L52.0895142,25.0047239 C54.391216,20.5931287 54.4364548,15.3450455 52.2111456,10.8944272 C51.7171671,9.9064702 52.1176158,8.70512412 53.1055728,8.21114562 C54.0935298,7.71716712 55.2948759,8.11761581 55.7888544,9.10557281 Z M43.7888544,9.10557281 C46.5880823,14.7040286 46.5311762,21.3056195 43.6358536,26.8549879 L39.9104858,33.9952761 C37.608784,38.4068713 37.5635452,43.6549545 39.7888544,48.1055728 C40.2828329,49.0935298 39.8823842,50.2948759 38.8944272,50.7888544 C37.9064702,51.2828329 36.7051241,50.8823842 36.2111456,49.8944272 C33.4119177,44.2959714 33.4688238,37.6943805 36.3641464,32.1450121 L40.0895142,25.0047239 C42.391216,20.5931287 42.4364548,15.3450455 40.2111456,10.8944272 C39.7171671,9.9064702 40.1176158,8.70512412 41.1055728,8.21114562 C42.0935298,7.71716712 43.2948759,8.11761581 43.7888544,9.10557281 Z M18.2494523,34.2404701 C18.3858247,34.1026895 18.6065567,34.0968697 18.75,34.2272727 C18.8949414,34.3590376 18.9354,34.5707133 18.8492699,34.746644 L18.7773678,34.8964962 C18.4576616,35.5755439 18.0318723,36.6403482 17.5,38.0909091 C16.9339193,39.6347656 16.6081741,41.2878656 16.522676,43.0502045 C16.4960135,43.5806121 16.0593924,43.9976625 15.5283203,44 L15.0791015,44 C15.0312301,44.0001596 14.9834085,43.9968875 14.9360058,43.9902029 C14.3891318,43.913084 14.0083201,43.4072379 14.085439,42.8603639 L14.1373983,42.5410329 C14.3484524,41.3565349 14.802653,40.0246755 15.5,38.5454545 C16.3553824,36.731007 17.2107648,35.3600014 18.0661472,34.4324376 L18.2494523,34.2404701 Z M31.7888544,9.10557281 C34.5880823,14.7040286 34.5311762,21.3056195 31.6358536,26.8549879 L28.7947531,32.2998149 C27.9904176,30.9779894 27.1099767,29.7408196 26.1897515,28.6459082 L28.0895142,25.0047239 C30.391216,20.5931287 30.4364548,15.3450455 28.2111456,10.8944272 C27.7171671,9.9064702 28.1176158,8.70512412 29.1055728,8.21114562 C30.0935298,7.71716712 31.2948759,8.11761581 31.7888544,9.10557281 Z" id="Shape" fill="#000000" fill-rule="nonzero"></path>
    </g>
</svg>