<?xml version="1.0" encoding="UTF-8"?>
<svg width="64px" height="64px" viewBox="0 0 64 64" version="1.1" xmlns="http://www.w3.org/2000/svg" xmlns:xlink="http://www.w3.org/1999/xlink">
    <title>measure_power</title>
    <g id="measure_power" stroke="none" stroke-width="1" fill="none" fill-rule="evenodd">
        <path d="M37.4551585,8.68777822 C38.0090144,8.05676716 38.9037388,7.83352884 39.6956249,8.12877038 C40.7379981,8.51740183 41.2632748,9.66507682 40.8688633,10.6921742 L34.751,27 L44.9819932,27 C45.4061866,27 45.8179752,27.1316625 46.1599406,27.3739156 L46.302055,27.4844478 C47.145019,28.2028137 47.2373646,29.4585072 46.5083146,30.2891178 L24.5448415,55.3122218 C23.9909856,55.9432328 23.0962612,56.1664712 22.3043751,55.8712296 C21.2620019,55.4825982 20.7367252,54.3349232 21.1311367,53.3078258 L27.249,37 L17.0180068,37 C16.5938134,37 16.1820248,36.8683375 15.8400594,36.6260844 L15.697945,36.5155522 C14.854981,35.7971863 14.7626354,34.5414928 15.4916854,33.7108822 L37.4551585,8.68777822 Z" id="Path" fill="#000000"></path>
    </g>
</svg>