<?xml version="1.0" encoding="UTF-8"?>
<svg width="64px" height="64px" viewBox="0 0 64 64" version="1.1" xmlns="http://www.w3.org/2000/svg" xmlns:xlink="http://www.w3.org/1999/xlink">
    <title>onoff</title>
    <g id="onoff" stroke="none" stroke-width="1" fill="none" fill-rule="evenodd">
        <path d="M44.6186816,13.978655 C47.8525272,16.2430181 50.2910067,19.2198587 51.8705294,22.548536 C53.2066026,25.3493539 53.9025615,28.3377415 53.9919848,31.3200883 L54.0015494,31.8972673 L54.0015494,32.1536667 C53.9823409,35.2908689 53.2936351,38.4473244 51.8956388,41.3978224 C50.8603112,43.5956272 49.4506388,45.6415989 47.6853216,47.4318188 C45.8346882,49.3167007 43.6985938,50.8120765 41.3954209,51.8970261 L41.0695124,52.0473118 C38.4840739,53.2209847 35.7485267,53.8561064 33.0120487,53.9795168 L32.4647849,53.997384 L32.1027327,54.0015494 L31.8463333,54.0015494 C31.7465673,54.0008711 31.6461137,53.9995755 31.5456477,53.9975924 C28.8064716,53.9435228 26.0580694,53.3783488 23.4502452,52.2756558 L22.8273402,52.0004446 L22.6041804,51.8965876 C20.5481648,50.9282985 18.624997,49.632448 16.9197256,48.0243273 L16.4908949,47.6084976 L16.358263,47.4755008 C14.4847837,45.5867067 13.0090574,43.4104098 11.9526882,41.0695124 C10.732563,38.3817032 10.0944425,35.5316552 10.0082287,32.6869884 L9.99845065,32.1027327 L9.99845065,31.8463333 C10.0171365,28.7948025 10.669249,25.7250583 11.9914151,22.8443561 C13.5656562,19.3963096 16.0519679,16.3098913 19.3813184,13.978655 C20.2861288,13.3451 21.5332203,13.5649959 22.1667754,14.4698062 C22.8003304,15.3746166 22.5804345,16.6217082 21.6756241,17.2552632 C19.9360166,18.4733495 18.4777166,19.9434269 17.3155113,21.5816324 L17.2552632,21.6756241 C16.6208128,22.5817133 16.0814584,23.5259412 15.6351107,24.4964577 C14.6486413,26.6535756 14.0986269,28.9846573 14.0109156,31.3450603 L13.9984641,32.0007194 C14.0007894,34.5561931 14.5458492,37.0930018 15.6015512,39.4291403 C16.0537483,40.4254121 16.6044778,41.394958 17.2552632,42.3243759 C17.8924059,43.2343099 18.5984935,44.067278 19.3615243,44.8211639 C20.0665578,45.5140963 20.8385219,46.1585915 21.6756241,46.7447368 C22.4990329,47.3212938 23.3539377,47.8193179 24.2314453,48.2403771 C26.3726561,49.2626075 28.6932167,49.8494101 31.0490571,49.9756541 L31.6595192,49.9986201 L32.1483465,50.0010558 L32.3406983,49.9980248 C34.9051683,49.9473907 37.442668,49.3507674 39.7688275,48.2406642 C40.6460623,47.8193179 41.5009671,47.3212938 42.3243759,46.7447368 C43.1613747,46.1586639 43.9332515,45.5142555 44.6383591,44.8208527 L44.9709717,44.4838626 C45.6074379,43.8209267 46.2011769,43.1006598 46.7447368,42.3243759 C47.3223899,41.4994017 47.8212112,40.6428116 48.2427778,39.7635497 C49.3144767,37.5168793 49.9069424,35.0729428 49.9911076,32.5980768 L50.0015367,32.0002809 C49.9992466,29.3200811 49.3999476,26.6603865 48.2406642,24.2311725 C47.8193179,23.3539377 47.3212938,22.4990329 46.7447368,21.6756241 L46.6866061,21.5846178 C45.5240549,19.9452129 44.06504,18.4740894 42.3243759,17.2552632 C41.4195655,16.6217082 41.1996696,15.3746166 41.8332246,14.4698062 C42.4667797,13.5649959 43.7138712,13.3451 44.6186816,13.978655 Z M32,8 C33.1045695,8 34,8.8954305 34,10 L34,30 C34,31.1045695 33.1045695,32 32,32 C30.8954305,32 30,31.1045695 30,30 L30,10 C30,8.8954305 30.8954305,8 32,8 Z" id="Shape" fill="#000000"></path>
    </g>
</svg>