<?xml version="1.0" encoding="UTF-8"?>
<svg width="64px" height="64px" viewBox="0 0 64 64" version="1.1" xmlns="http://www.w3.org/2000/svg" xmlns:xlink="http://www.w3.org/1999/xlink">
    <title>target_temperature_min</title>
    <g id="target_temperature_min" stroke="none" stroke-width="1" fill="none" fill-rule="evenodd">
        <path d="M26.999,37 L26.9997843,37.5156934 C24.5879338,39.1302357 23,41.8796769 23,45 C23,49.9705627 27.0294373,54 32,54 C36.9705627,54 41,49.9705627 41,45 C41,41.8801057 39.4125026,39.1309913 37.00121,37.5163591 L37.001,37 L42.2488072,37.0004207 C43.9292716,39.1516772 44.9186676,41.81422 44.9952035,44.6449421 L45,45 C45,52.1797017 39.1797017,58 32,58 C24.8202983,58 19,52.1797017 19,45 C19,42.037046 20.0007527,39.2410944 21.7514763,37 L26.999,37 Z M34,37 L34.0006859,39.3416539 C36.3307123,40.1655203 38,42.3878187 38,45 C38,48.3137085 35.3137085,51 32,51 C28.6862915,51 26,48.3137085 26,45 C26,42.3874421 27.669769,40.1648796 30.0003218,39.3412977 L30,37 L34,37 Z M51,27 C53.7614237,27 56,29.2385763 56,32 C56,34.7614237 53.7614237,37 51,37 C48.949887,37 47.1879545,35.7661528 46.4162763,34.0005324 L13,34 C11.8954305,34 11,33.1045695 11,32 C11,30.8954305 11.8954305,30 13,30 L46.4158423,30.0004611 C47.1872936,28.23431 48.9495025,27 51,27 Z M31.999,6 L32.2653623,6.0038371 C37.1131863,6.14420851 41,10.1181935 41,14.9997851 L41.001,27 L37.001,27 L37,15 C37,12.2385763 34.7614237,10 32,10 C29.2385763,10 27,12.2385763 27,15 L26.999,27 L23,27 L23,15 C23,10.1181973 26.8868137,6.14420858 31.7346377,6.00383711 L31.999,6 Z" id="Shape" fill="#000000" fill-rule="nonzero"></path>
    </g>
</svg>